# xmcd
#
# Track frame offsets: 
#        150
#        12159
#        27574
#        43380
#        59309
#        74374
#        89917
#        104646
#        117224
#        130271
#
# Disc length: 1949 seconds
#
# Revision: 0
# Processed by: cddbd v1.5.2PL0 Copyright (c) Steve Scherf et al.
# Submitted via: ExactAudioCopy v0.99pb4
#
DISCID=96079b0a
DTITLE=เทิด ทูลทอง - ปัดฝุ่น รุ่นพิเศษ 20
DYEAR=2009
DGENRE=Country
TTITLE0=เสียงดุเหว่าแว่ว
TTITLE1=นางแก้ว
TTITLE2=ยังรักยังหลง
TTITLE3=สอนพี่ให้รัก
TTITLE4=ไกลน้อง
TTITLE5=ตาลเดี่ยว
TTITLE6=เธอรู้หรือเปล่า
TTITLE7=รังรักในจินตนาการ
TTITLE8=ซุ้มรักเก่า
TTITLE9=โนรีจากคอน
EXTD=
EXTT0=
EXTT1=
EXTT2=
EXTT3=
EXTT4=
EXTT5=
EXTT6=
EXTT7=
EXTT8=
EXTT9=
PLAYORDER=
